<svg xmlns="http://www.w3.org/2000/svg" width="101" height="35" viewBox="0 0 101 35" fill="none">
 
  <path d="M24.4657 29.4604L28.3982 15.598L32.2924 29.4604H34.2491L29.3958 13.3013H27.3815L22.5282 29.4604H24.4657Z" fill="white"/>
  <path d="M37.6836 8.01763C38.1369 8.81843 38.2391 9.84338 37.9268 11.0893C37.6131 12.3412 36.8911 13.763 35.7783 15.2655C33.5541 18.2686 29.8687 21.459 25.2347 24.0821C20.6008 26.7052 15.9686 28.223 12.2491 28.5844C10.3881 28.7653 8.7975 28.6526 7.56264 28.2772C6.33371 27.9037 5.50751 27.2886 5.05421 26.4878C4.6009 25.687 4.49872 24.662 4.81095 23.4161C5.1247 22.1642 5.84669 20.7424 6.95951 19.2399C9.18371 16.2368 12.8691 13.0464 17.5031 10.4233C22.137 7.80021 26.7692 6.2824 30.4887 5.92098C32.3497 5.74015 33.9403 5.85285 35.1752 6.22818C36.4041 6.6017 37.2303 7.21682 37.6836 8.01763Z" stroke="white" stroke-width="1.74392"/>
</svg>